<svg width="1383" height="292" viewBox="0 0 1383 292" fill="none" xmlns="http://www.w3.org/2000/svg">
<mask id="mask0_2144_1400" style="mask-type:luminance" maskUnits="userSpaceOnUse" x="227" y="25" width="1156" height="240">
<path d="M1382.08 25.7188H227.412V264.385H1382.08V25.7188Z" fill="white"/>
</mask>
<g mask="url(#mask0_2144_1400)">
<path d="M294.465 202.987C282.908 202.987 272.663 200.456 263.736 195.383C254.804 190.315 247.83 183.315 242.82 174.383C237.804 165.456 235.299 155.164 235.299 143.508C235.299 131.841 237.804 121.544 242.82 112.612C247.83 103.685 254.778 96.6849 263.653 91.612C272.538 86.5443 282.757 84.0078 294.299 84.0078C303.992 84.0078 312.867 85.862 320.924 89.5703C328.992 93.2786 335.778 98.5078 341.278 105.258C346.778 112.008 350.617 119.961 352.799 129.112H326.007C323.825 122.794 319.955 117.815 314.403 114.174C308.846 110.523 302.413 108.695 295.111 108.695C288.679 108.695 282.929 110.169 277.861 113.112C272.804 116.044 268.861 120.128 266.028 125.362C263.195 130.586 261.778 136.633 261.778 143.508C261.778 150.372 263.195 156.419 266.028 161.654C268.861 166.878 272.783 170.961 277.799 173.904C282.809 176.836 288.528 178.299 294.945 178.299C302.471 178.299 309.059 176.372 314.715 172.508C320.382 168.633 324.413 163.435 326.82 156.904H353.611C351.762 166.169 348.059 174.258 342.507 181.174C336.95 188.091 330.054 193.461 321.82 197.279C313.596 201.081 304.476 202.987 294.465 202.987Z" fill="#5B4F47"/>
<path d="M373.877 200.695V86.2988H422.731C431.45 86.2988 439.023 87.8822 445.439 91.0488C451.867 94.2051 456.825 98.7259 460.314 104.611C463.799 110.486 465.544 117.518 465.544 125.695C465.544 134.085 463.632 141.299 459.814 147.34C456.007 153.382 450.674 157.934 443.814 160.986L467.523 200.695H437.439L417.023 165.07H399.856V200.695H373.877ZM399.523 143.174H419.314C425.731 143.174 430.653 141.674 434.085 138.674C437.512 135.674 439.231 131.398 439.231 125.84C439.231 120.288 437.512 116.018 434.085 113.028C430.653 110.028 425.731 108.528 419.314 108.528H399.523V143.174Z" fill="#5B4F47"/>
<path d="M476.664 200.695L522.081 86.2988H547.581L593.018 200.695H565.227L557.539 180.924H512.122L504.435 200.695H476.664ZM518.81 160.486H551.018L534.831 118.653L518.81 160.486Z" fill="#5B4F47"/>
<path d="M608.201 200.695V86.2988H679.93V109.84H634.18V138.424H675.68V161.32H634.18V200.695H608.201Z" fill="#5B4F47"/>
<path d="M728.311 200.695V110.653H692.02V86.2988H790.561V110.653H754.29V200.695H728.311Z" fill="#5B4F47"/>
<path d="M878.328 200.695L888.62 149.215H828.641L818.349 200.695H803.641L826.516 86.2988H841.224L831.432 135.486H891.391L901.203 86.2988H915.911L893.036 200.695H878.328Z" fill="#5B4F47"/>
<path d="M978.982 202.82C967.217 202.82 957.326 200.236 949.316 195.07C941.316 189.893 935.649 182.778 932.316 173.736C928.993 164.695 928.482 154.294 930.774 142.528C933.066 130.976 937.529 120.814 944.17 112.049C950.821 103.273 959.024 96.4342 968.774 91.528C978.524 86.627 989.113 84.1738 1000.54 84.1738C1012.42 84.1738 1022.36 86.7676 1030.36 91.9447C1038.37 97.1113 1044.07 104.226 1047.44 113.278C1050.83 122.32 1051.32 132.726 1048.92 144.486C1046.63 156.028 1042.16 166.189 1035.52 174.965C1028.88 183.731 1020.68 190.564 1010.92 195.465C1001.17 200.372 990.524 202.82 978.982 202.82ZM945.316 144.486C943.576 153.195 943.847 160.877 946.128 167.528C948.42 174.169 952.451 179.314 958.232 182.965C964.008 186.622 971.196 188.445 979.795 188.445C988.722 188.445 996.972 186.486 1004.54 182.57C1012.13 178.643 1018.53 173.215 1023.75 166.299C1028.99 159.382 1032.47 151.46 1034.21 142.528C1036.07 133.695 1035.83 125.986 1033.48 119.403C1031.13 112.809 1027.1 107.689 1021.38 104.049C1015.67 100.398 1008.51 98.5697 999.899 98.5697C990.967 98.5697 982.691 100.528 975.066 104.445C967.441 108.361 961.035 113.757 955.857 120.632C950.675 127.497 947.16 135.445 945.316 144.486Z" fill="#5B4F47"/>
<path d="M1107.27 202.653C1093.21 202.653 1083.02 198.273 1076.7 189.507C1070.38 180.731 1068.74 168.715 1071.79 153.465L1085.2 86.2988H1099.74L1086.35 153.632C1081.65 176.955 1088.84 188.611 1107.91 188.611C1118.15 188.611 1126.42 185.564 1132.74 179.465C1139.06 173.356 1143.42 164.361 1145.83 152.486L1159.06 86.2988H1173.6L1159.87 154.611C1156.83 169.976 1150.83 181.82 1141.89 190.153C1132.96 198.486 1121.42 202.653 1107.27 202.653Z" fill="#5B4F47"/>
<path d="M1221.47 202.82C1212.54 202.82 1204.94 201.299 1198.68 198.257C1192.41 195.205 1187.89 190.872 1185.12 185.257C1182.34 179.648 1181.6 173.028 1182.91 165.403H1197.45C1196.25 172.695 1197.78 178.465 1202.03 182.715C1206.28 186.965 1212.98 189.09 1222.14 189.09C1230.73 189.09 1237.7 187.434 1243.03 184.111C1248.38 180.794 1251.54 176.731 1252.53 171.924C1253.62 166.481 1252.5 162.07 1249.18 158.695C1245.86 155.32 1239.18 152.382 1229.16 149.882C1215.33 146.288 1205.63 141.71 1200.08 136.153C1194.52 130.601 1192.72 122.919 1194.68 113.111C1195.76 107.335 1198.29 102.294 1202.26 97.9863C1206.25 93.6842 1211.37 90.3092 1217.64 87.8613C1223.9 85.403 1231.06 84.1738 1239.12 84.1738C1252.41 84.1738 1262.33 87.4186 1268.87 93.903C1275.41 100.393 1277.75 109.132 1275.89 120.132H1261.35C1262.65 113.163 1261.35 107.715 1257.43 103.799C1253.51 99.8717 1247.08 97.903 1238.14 97.903C1230.4 97.903 1223.89 99.5436 1218.62 102.82C1213.34 106.085 1210.26 110.111 1209.39 114.903C1208.29 120.46 1209.48 124.877 1212.97 128.153C1216.46 131.419 1223.33 134.247 1233.58 136.632C1247.08 139.898 1256.54 144.528 1261.99 150.528C1267.45 156.518 1269.25 164.028 1267.39 173.07C1265.65 182.018 1260.8 189.21 1252.85 194.653C1244.9 200.101 1234.44 202.82 1221.47 202.82Z" fill="#5B4F47"/>
<path d="M1288.3 200.695L1311.18 86.2988H1380.64L1378.03 99.6947H1323.12L1315.93 135.82H1366.58L1363.97 149.049H1313.3L1305.8 187.299H1362.18L1359.55 200.695H1288.3Z" fill="#5B4F47"/>
</g>
<path d="M253.319 290.521V253.605H239.465V250.271H270.694V253.605H256.777V290.521H253.319Z" fill="#5B4F47"/>
<path d="M306.443 290.521V271.667H282.859V290.521H279.359V250.271H282.859V268.334H306.443V250.271H309.943V290.521H306.443Z" fill="#5B4F47"/>
<path d="M322.934 290.521V250.271H346.621V253.542H326.434V268.376H345.121V271.605H326.434V287.251H347.246V290.521H322.934Z" fill="#5B4F47"/>
<path d="M368.117 290.521L384.784 250.271H388.117L404.805 290.521H401.117L396.909 280.396H375.992L371.846 290.521H368.117ZM377.367 277.188H395.596L386.451 255.042L377.367 277.188Z" fill="#5B4F47"/>
<path d="M412.609 290.521V250.271H427.505C430.224 250.271 432.578 250.792 434.568 251.834C436.568 252.865 438.12 254.308 439.234 256.167C440.344 258.032 440.901 260.245 440.901 262.813C440.901 266.146 439.974 268.896 438.13 271.063C436.297 273.23 433.786 274.579 430.609 275.105L441.526 290.521H437.339L426.526 275.396H416.109V290.521H412.609ZM416.109 272.063H427.151C430.328 272.063 432.823 271.245 434.63 269.605C436.432 267.954 437.339 265.688 437.339 262.813C437.339 259.969 436.432 257.725 434.63 256.084C432.823 254.433 430.328 253.605 427.151 253.605H416.109V272.063Z" fill="#5B4F47"/>
<path d="M461.469 290.521V253.605H447.615V250.271H478.844V253.605H464.928V290.521H461.469Z" fill="#5B4F47"/>
<path d="M520.854 291.271C516.781 291.271 513.187 290.391 510.062 288.626C506.947 286.865 504.51 284.412 502.749 281.271C500.984 278.12 500.104 274.495 500.104 270.396C500.104 266.303 500.984 262.683 502.749 259.542C504.51 256.391 506.947 253.933 510.062 252.167C513.187 250.407 516.781 249.521 520.854 249.521C524.947 249.521 528.562 250.407 531.687 252.167C534.812 253.933 537.239 256.391 538.979 259.542C540.729 262.683 541.604 266.303 541.604 270.396C541.604 274.495 540.729 278.12 538.979 281.271C537.239 284.412 534.812 286.865 531.687 288.626C528.562 290.391 524.947 291.271 520.854 291.271ZM503.666 270.396C503.666 273.813 504.395 276.834 505.854 279.459C507.312 282.084 509.333 284.126 511.916 285.584C514.499 287.042 517.479 287.771 520.854 287.771C524.27 287.771 527.27 287.042 529.854 285.584C532.437 284.126 534.458 282.084 535.916 279.459C537.374 276.834 538.104 273.813 538.104 270.396C538.104 266.954 537.374 263.928 535.916 261.313C534.458 258.704 532.437 256.667 529.854 255.209C527.27 253.751 524.27 253.021 520.854 253.021C517.479 253.021 514.499 253.751 511.916 255.209C509.333 256.667 507.312 258.704 505.854 261.313C504.395 263.928 503.666 266.954 503.666 270.396Z" fill="#5B4F47"/>
<path d="M551.777 290.521V250.271H573.965V253.542H555.277V269.355H572.465V272.584H555.277V290.521H551.777Z" fill="#5B4F47"/>
<path d="M599.375 290.521V250.271H602.646L619.375 275.459L636.125 250.271H639.333V290.521H635.875V256.709L620.813 279.313H617.938L602.875 256.709V290.521H599.375Z" fill="#5B4F47"/>
<path d="M670.256 291.271C666.183 291.271 662.589 290.391 659.464 288.626C656.35 286.865 653.912 284.412 652.152 281.271C650.386 278.12 649.506 274.495 649.506 270.396C649.506 266.303 650.386 262.683 652.152 259.542C653.912 256.391 656.35 253.933 659.464 252.167C662.589 250.407 666.183 249.521 670.256 249.521C674.35 249.521 677.964 250.407 681.089 252.167C684.214 253.933 686.641 256.391 688.381 259.542C690.131 262.683 691.006 266.303 691.006 270.396C691.006 274.495 690.131 278.12 688.381 281.271C686.641 284.412 684.214 286.865 681.089 288.626C677.964 290.391 674.35 291.271 670.256 291.271ZM653.068 270.396C653.068 273.813 653.798 276.834 655.256 279.459C656.714 282.084 658.735 284.126 661.318 285.584C663.902 287.042 666.881 287.771 670.256 287.771C673.673 287.771 676.673 287.042 679.256 285.584C681.839 284.126 683.86 282.084 685.318 279.459C686.777 276.834 687.506 273.813 687.506 270.396C687.506 266.954 686.777 263.928 685.318 261.313C683.86 258.704 681.839 256.667 679.256 255.209C676.673 253.751 673.673 253.021 670.256 253.021C666.881 253.021 663.902 253.751 661.318 255.209C658.735 256.667 656.714 258.704 655.256 261.313C653.798 263.928 653.068 266.954 653.068 270.396Z" fill="#5B4F47"/>
<path d="M701.18 290.521V250.271H716.076C718.794 250.271 721.148 250.792 723.138 251.834C725.138 252.865 726.69 254.308 727.805 256.167C728.914 258.032 729.471 260.245 729.471 262.813C729.471 266.146 728.544 268.896 726.701 271.063C724.867 273.23 722.357 274.579 719.18 275.105L730.096 290.521H725.909L715.096 275.396H704.68V290.521H701.18ZM704.68 272.063H715.721C718.898 272.063 721.393 271.245 723.201 269.605C725.003 267.954 725.909 265.688 725.909 262.813C725.909 259.969 725.003 257.725 723.201 256.084C721.393 254.433 718.898 253.605 715.721 253.605H704.68V272.063Z" fill="#5B4F47"/>
<path d="M758.438 291.271C754.365 291.271 750.771 290.391 747.646 288.626C744.531 286.865 742.094 284.412 740.333 281.271C738.568 278.12 737.688 274.495 737.688 270.396C737.688 266.303 738.568 262.683 740.333 259.542C742.094 256.391 744.531 253.933 747.646 252.167C750.771 250.407 754.365 249.521 758.438 249.521C762.531 249.521 766.146 250.407 769.271 252.167C772.396 253.933 774.823 256.391 776.563 259.542C778.313 262.683 779.188 266.303 779.188 270.396C779.188 274.495 778.313 278.12 776.563 281.271C774.823 284.412 772.396 286.865 769.271 288.626C766.146 290.391 762.531 291.271 758.438 291.271ZM741.25 270.396C741.25 273.813 741.979 276.834 743.438 279.459C744.896 282.084 746.917 284.126 749.5 285.584C752.083 287.042 755.063 287.771 758.438 287.771C761.854 287.771 764.854 287.042 767.438 285.584C770.021 284.126 772.042 282.084 773.5 279.459C774.958 276.834 775.688 273.813 775.688 270.396C775.688 266.954 774.958 263.928 773.5 261.313C772.042 258.704 770.021 256.667 767.438 255.209C764.854 253.751 761.854 253.021 758.438 253.021C755.063 253.021 752.083 253.751 749.5 255.209C746.917 256.667 744.896 258.704 743.438 261.313C741.979 263.928 741.25 266.954 741.25 270.396Z" fill="#5B4F47"/>
<path d="M806.945 291.271C802.997 291.271 799.492 290.386 796.424 288.605C793.367 286.813 790.955 284.35 789.195 281.209C787.429 278.074 786.549 274.469 786.549 270.396C786.549 266.303 787.429 262.688 789.195 259.563C790.955 256.438 793.367 253.99 796.424 252.209C799.492 250.417 802.997 249.521 806.945 249.521C810.012 249.521 812.851 250.094 815.465 251.23C818.075 252.355 820.32 253.949 822.195 256.001C824.07 258.042 825.45 260.49 826.34 263.334H822.653C821.497 260.141 819.518 257.626 816.715 255.792C813.924 253.949 810.684 253.021 807.007 253.021C803.757 253.021 800.851 253.751 798.299 255.209C795.757 256.667 793.757 258.704 792.299 261.313C790.84 263.928 790.111 266.954 790.111 270.396C790.111 273.813 790.84 276.834 792.299 279.459C793.757 282.084 795.757 284.126 798.299 285.584C800.851 287.042 803.757 287.771 807.007 287.771C810.768 287.771 814.096 286.813 816.986 284.896C819.872 282.98 821.872 280.35 822.986 277.001H826.674C825.867 279.876 824.507 282.391 822.59 284.542C820.674 286.699 818.382 288.355 815.715 289.521C813.059 290.688 810.137 291.271 806.945 291.271Z" fill="#5B4F47"/>
<path d="M854.197 291.271C850.249 291.271 846.743 290.386 843.676 288.605C840.618 286.813 838.207 284.35 836.447 281.209C834.681 278.074 833.801 274.469 833.801 270.396C833.801 266.303 834.681 262.688 836.447 259.563C838.207 256.438 840.618 253.99 843.676 252.209C846.743 250.417 850.249 249.521 854.197 249.521C857.264 249.521 860.103 250.094 862.717 251.23C865.327 252.355 867.572 253.949 869.447 256.001C871.322 258.042 872.702 260.49 873.592 263.334H869.905C868.749 260.141 866.77 257.626 863.967 255.792C861.176 253.949 857.936 253.021 854.259 253.021C851.009 253.021 848.103 253.751 845.551 255.209C843.009 256.667 841.009 258.704 839.551 261.313C838.092 263.928 837.363 266.954 837.363 270.396C837.363 273.813 838.092 276.834 839.551 279.459C841.009 282.084 843.009 284.126 845.551 285.584C848.103 287.042 851.009 287.771 854.259 287.771C858.02 287.771 861.348 286.813 864.238 284.896C867.124 282.98 869.124 280.35 870.238 277.001H873.926C873.118 279.876 871.759 282.391 869.842 284.542C867.926 286.699 865.634 288.355 862.967 289.521C860.311 290.688 857.389 291.271 854.197 291.271Z" fill="#5B4F47"/>
<path d="M878.637 290.521L895.303 250.271H898.637L915.324 290.521H911.637L907.428 280.396H886.512L882.366 290.521H878.637ZM887.887 277.188H906.116L896.97 255.042L887.887 277.188Z" fill="#5B4F47"/>
<path d="M923.127 290.521V250.271H926.398L950.898 284.48V250.271H954.356V290.521H951.064L926.564 256.251V290.521H923.127Z" fill="#5B4F47"/>
<path d="M1000.32 291.271C996.374 291.271 992.868 290.386 989.801 288.605C986.743 286.813 984.332 284.35 982.572 281.209C980.806 278.074 979.926 274.469 979.926 270.396C979.926 266.303 980.806 262.688 982.572 259.563C984.332 256.438 986.743 253.99 989.801 252.209C992.868 250.417 996.374 249.521 1000.32 249.521C1003.39 249.521 1006.23 250.094 1008.84 251.23C1011.45 252.355 1013.7 253.949 1015.57 256.001C1017.45 258.042 1018.83 260.49 1019.72 263.334H1016.03C1014.87 260.141 1012.89 257.626 1010.09 255.792C1007.3 253.949 1004.06 253.021 1000.38 253.021C997.134 253.021 994.228 253.751 991.676 255.209C989.134 256.667 987.134 258.704 985.676 261.313C984.217 263.928 983.488 266.954 983.488 270.396C983.488 273.813 984.217 276.834 985.676 279.459C987.134 282.084 989.134 284.126 991.676 285.584C994.228 287.042 997.134 287.771 1000.38 287.771C1004.14 287.771 1007.47 286.813 1010.36 284.896C1013.25 282.98 1015.25 280.35 1016.36 277.001H1020.05C1019.24 279.876 1017.88 282.391 1015.97 284.542C1014.05 286.699 1011.76 288.355 1009.09 289.521C1006.44 290.688 1003.51 291.271 1000.32 291.271Z" fill="#5B4F47"/>
<path d="M1029.99 290.521V250.271H1044.89C1047.6 250.271 1049.96 250.792 1051.95 251.834C1053.95 252.865 1055.5 254.308 1056.62 256.167C1057.72 258.032 1058.28 260.245 1058.28 262.813C1058.28 266.146 1057.35 268.896 1055.51 271.063C1053.68 273.23 1051.17 274.579 1047.99 275.105L1058.91 290.521H1054.72L1043.91 275.396H1033.49V290.521H1029.99ZM1033.49 272.063H1044.53C1047.71 272.063 1050.2 271.245 1052.01 269.605C1053.81 267.954 1054.72 265.688 1054.72 262.813C1054.72 259.969 1053.81 257.725 1052.01 256.084C1050.2 254.433 1047.71 253.605 1044.53 253.605H1033.49V272.063Z" fill="#5B4F47"/>
<path d="M1064.08 290.521L1080.75 250.271H1084.08L1100.77 290.521H1097.08L1092.87 280.396H1071.96L1067.81 290.521H1064.08ZM1073.33 277.188H1091.56L1082.42 255.042L1073.33 277.188Z" fill="#5B4F47"/>
<path d="M1108.57 290.521V250.271H1130.76V253.542H1112.07V269.355H1129.26V272.584H1112.07V290.521H1108.57Z" fill="#5B4F47"/>
<path d="M1150.31 290.521V253.605H1136.45V250.271H1167.68V253.605H1153.76V290.521H1150.31Z" fill="#5B4F47"/>
<mask id="mask1_2144_1400" style="mask-type:luminance" maskUnits="userSpaceOnUse" x="0" y="0" width="199" height="291">
<path d="M0 0H199V291H0V0Z" fill="white"/>
</mask>
<g mask="url(#mask1_2144_1400)">
<path fill-rule="evenodd" clip-rule="evenodd" d="M0.296875 251.24L35.7917 218.058L0.296875 184.886M0.296875 105.709L35.7917 72.5319L0.296875 39.36V105.709ZM81.4583 0.224609L91.2448 9.38086L118.479 34.834L100.427 51.7142L45.3385 0.224609H1.46875L11.276 9.38086L78.4844 72.2194L11.276 135.048L0.296875 145.298L11.276 155.542L78.4844 218.381L11.276 281.209L1.46354 290.365H45.3385L100.427 238.896L118.479 255.766L91.2448 281.209L81.4583 290.365H125.323L140.427 276.251L155.5 290.365H199V290.016L44.1771 145.298L199 0.583984V0.224609H155.5L140.427 14.3236L125.323 0.224609H81.4583ZM188.448 44.1986L91.2448 135.048L80.276 145.298L91.2448 155.542L188.448 246.402L199 256.261V215.245L124.167 145.298L199 75.3496V34.3392L188.448 44.1986ZM199 112.12L163.5 145.298L199 178.475V112.12Z" fill="#D4652F"/>
</g>
</svg>
