<svg width="1374" height="415" viewBox="0 0 1374 415" fill="none" xmlns="http://www.w3.org/2000/svg">
<path d="M81.7083 258.169C81.7083 262.701 78.526 264.961 72.1667 264.961H9.54167C3.17708 264.961 0 262.701 0 258.169C0 256.461 0.520833 254.997 1.5625 253.773C2.60417 252.539 4.46875 251.497 7.16667 250.648L18 247.878C23.75 246.044 27.5417 243.997 29.375 241.732C31.2083 239.471 32.125 235.893 32.125 231.003V60.9609C32.125 58.5182 31.9063 56.4089 31.4792 54.6276C31.0625 52.8516 30.2344 50.9297 29 48.8568C27.776 46.7734 25.8802 44.263 23.3125 41.3151L7.16667 21.8568C5.56771 19.7734 4.46354 18.1589 3.85417 17.0026C3.23958 15.8359 2.9375 14.638 2.9375 13.3984C2.9375 11.6901 3.60937 10.3516 4.95833 9.3776C6.30208 8.39323 8.02083 7.89844 10.1042 7.89844H41.6875C44.8646 7.89844 47.526 8.45573 49.6667 9.5651C51.8021 10.6641 54.0417 12.7422 56.375 15.7943L203.438 205.107V41.8776C203.438 36.9766 202.547 33.4297 200.771 31.2318C199.005 29.0234 195.188 26.9401 189.313 24.9818L178.646 22.2318C175.964 21.2474 174.104 20.1797 173.063 19.0234C172.021 17.8568 171.5 16.4141 171.5 14.6901C171.5 10.1641 174.677 7.89844 181.042 7.89844H243.646C249.896 7.89844 253.021 10.1641 253.021 14.6901C253.021 16.4141 252.526 17.8568 251.542 19.0234C250.568 20.1797 248.734 21.2474 246.042 22.2318L235.208 24.9818C229.583 26.6901 225.818 28.6797 223.917 30.9401C222.01 33.2057 221.063 36.8516 221.063 41.8776V219.232C221.063 222.789 221.396 225.794 222.063 228.253C222.74 230.701 223.88 232.956 225.479 235.023L236.854 249.357C238.698 251.805 239.865 253.669 240.354 254.961C240.839 256.242 241.083 257.555 241.083 258.898C241.083 260.622 240.406 262.065 239.063 263.232C237.714 264.388 235.755 264.961 233.188 264.961H195.917C191.01 264.961 188.563 263.003 188.563 259.086C188.563 257.742 188.438 256.544 188.188 255.503C187.948 254.461 187.313 253.148 186.271 251.565C185.229 249.971 183.609 247.763 181.417 244.94L49.5833 74.7318V231.003C49.5833 234.185 49.9427 236.784 50.6667 238.794C51.401 240.81 52.8125 242.492 54.8958 243.836C56.9792 245.185 59.9792 246.534 63.8958 247.878L74.5417 250.648C77.2344 251.622 79.1042 252.69 80.1458 253.857C81.1875 255.023 81.7083 256.461 81.7083 258.169Z" fill="black"/>
<path d="M289.383 14.6875C289.383 10.1615 292.383 7.89583 298.383 7.89583H437.737C441.654 7.89583 444.862 7.22396 447.362 5.875C449.872 4.53125 452.237 3.21875 454.445 1.9375C456.654 0.645833 459.159 0 461.966 0C464.909 0 467.174 0.828125 468.758 2.47917C470.352 4.13542 471.643 6.79167 472.633 10.4583L486.758 61.875C488.227 67.0156 486.701 70.2604 482.174 71.6042C476.909 73.2031 472.93 71.3073 470.237 65.9167C466.07 56.6146 462.18 49.1198 458.57 43.4375C454.956 37.7448 451.346 33.4323 447.737 30.5C444.122 27.5573 440.081 25.5625 435.612 24.5208C431.154 23.4792 425.924 22.9583 419.924 22.9583H360.445V129.271H407.799C412.826 129.271 416.805 128.661 419.737 127.438C422.68 126.219 424.883 124.078 426.341 121.021C427.81 117.953 428.914 113.661 429.654 108.146C430.513 103.135 432.904 100.438 436.82 100.063C440.862 99.7031 443.492 101.911 444.716 106.688L458.299 159.188C459.518 164.453 458.112 167.703 454.07 168.938C449.789 170.161 446.43 168.75 443.987 164.708C440.914 159.073 438.06 154.786 435.424 151.854C432.799 148.911 429.862 146.891 426.612 145.792C423.372 144.698 419.31 144.146 414.424 144.146H360.445V233.563C360.445 244.453 367.299 249.896 381.008 249.896H425.258C431.133 249.896 436.362 249.224 440.945 247.875C445.539 246.531 449.799 243.995 453.716 240.271C457.633 236.536 461.549 231.146 465.466 224.104C469.383 217.063 473.727 207.854 478.508 196.479C480.466 192.063 483.706 190.161 488.237 190.771C493.622 191.51 495.581 194.938 494.112 201.063L479.237 261.104C478.247 264.771 476.904 267.458 475.195 269.167C473.487 270.885 471.034 271.75 467.841 271.75C465.393 271.75 463.07 271.167 460.862 270C458.664 268.844 456.284 267.714 453.716 266.604C451.143 265.505 448.018 264.958 444.341 264.958H298.383C292.383 264.958 289.383 262.698 289.383 258.167C289.383 256.333 289.904 254.807 290.945 253.583C291.987 252.349 293.789 251.37 296.362 250.646L308.299 248.438C314.409 246.969 317.466 243.661 317.466 238.521V34.3333C317.466 29.1979 314.409 25.8906 308.299 24.4167L296.362 22.2292C293.789 21.4948 291.987 20.5156 290.945 19.2917C289.904 18.0573 289.383 16.5208 289.383 14.6875Z" fill="black"/>
<path d="M682.685 14.6901C682.685 10.1641 685.737 7.89844 691.852 7.89844H750.435C753.862 7.89844 756.31 8.48177 757.768 9.64844C759.237 10.8151 759.977 12.4349 759.977 14.5026C759.977 16.1016 759.456 17.4193 758.414 18.4609C757.372 19.5026 755.445 20.513 752.643 21.4818L744.935 23.8776C741.503 25.2266 738.685 27.3724 736.477 30.3151C734.268 33.2474 732.065 37.9557 729.872 44.4401L663.956 233.565C662.732 236.997 661.841 239.878 661.289 242.211C660.732 244.534 660.456 246.914 660.456 249.357V257.065C660.456 262.331 657.883 264.961 652.747 264.961H618.602C613.211 264.961 610.518 262.268 610.518 256.878V249.169C610.518 247.086 610.237 245.039 609.685 243.023C609.143 240.997 608.378 238.518 607.393 235.586L536.331 34.8984C535.107 31.5964 533.794 29.1797 532.393 27.6484C530.987 26.1068 528.997 24.9141 526.414 24.0651L518.539 21.8568C514.122 20.1484 511.914 17.763 511.914 14.6901C511.914 10.1641 515.039 7.89844 521.289 7.89844H600.247C606.482 7.89844 609.602 10.1641 609.602 14.6901C609.602 17.8724 607.148 20.138 602.247 21.4818L587.393 24.0651C584.195 24.8047 582.294 26.1797 581.685 28.1901C581.07 30.2057 581.565 33.6016 583.164 38.3776L648.893 225.107L711.872 43.3359C713.831 37.7109 714.227 33.4609 713.06 30.5859C711.904 27.7005 708.633 25.4609 703.247 23.8776L689.852 21.4818C687.518 20.7474 685.737 19.8932 684.518 18.9193C683.294 17.9349 682.685 16.5234 682.685 14.6901Z" fill="black"/>
<path d="M846.095 258.169C846.095 262.701 842.975 264.961 836.741 264.961H779.824C773.574 264.961 770.449 262.763 770.449 258.357C770.449 256.763 770.908 255.44 771.824 254.398C772.741 253.357 774.543 252.289 777.241 251.19L784.22 248.794C786.663 247.826 788.621 246.664 790.095 245.315C791.564 243.971 792.876 242.013 794.033 239.44C795.199 236.872 796.517 233.326 797.991 228.794L862.616 36.1693C863.96 31.7682 864.267 28.6224 863.533 26.7318C862.809 24.8307 860.241 23.3307 855.824 22.2318C852.408 21.2474 850.022 20.1432 848.678 18.9193C847.329 17.7005 846.658 16.2266 846.658 14.5026C846.658 10.1016 849.835 7.89844 856.199 7.89844H932.408C938.767 7.89844 941.949 10.0443 941.949 14.3359C941.949 16.2943 941.272 17.8568 939.928 19.0234C938.579 20.1797 936.314 21.1849 933.137 22.0443C929.579 22.8932 927.46 24.0547 926.783 25.5234C926.116 26.9974 926.335 29.513 927.449 33.0651L995.553 233.753C997.272 238.768 999.23 242.534 1001.43 245.044C1003.64 247.544 1006.94 249.289 1011.35 250.273C1014.77 251.372 1017.07 252.503 1018.24 253.669C1019.41 254.836 1019.99 256.336 1019.99 258.169C1019.99 262.701 1016.8 264.961 1010.43 264.961H937.366C931.116 264.961 927.991 262.701 927.991 258.169C927.991 254.992 930.376 252.664 935.158 251.19L948.199 249.169C951.376 248.435 952.996 247.06 953.053 245.044C953.105 243.018 952.408 239.742 950.949 235.211L931.845 178.482H833.991L818.012 226.773C815.803 233.513 815.283 238.44 816.449 241.565C817.616 244.68 821.012 247.211 826.637 249.169L838.928 251.378C843.704 252.852 846.095 255.117 846.095 258.169ZM839.303 162.69H926.699L883.012 31.7734L839.303 162.69Z" fill="black"/>
<path d="M1140.06 22.2318L1127.96 24.4193C1121.96 25.8932 1118.96 29.2005 1118.96 34.3359V236.878C1118.96 241.409 1120.39 244.711 1123.27 246.794C1126.14 248.867 1130.58 249.898 1136.58 249.898H1175.14C1182.24 249.898 1188.23 248.982 1193.12 247.148C1198.02 245.315 1202.37 242.076 1206.17 237.419C1209.96 232.768 1213.63 226.221 1217.19 217.773L1227.48 193.169C1229.55 188.268 1232.97 186.31 1237.75 187.294C1242.88 188.268 1244.72 191.638 1243.25 197.398L1227.64 261.294C1226.67 265.086 1225.32 267.805 1223.6 269.461C1221.89 271.112 1219.51 271.94 1216.46 271.94C1214 271.94 1211.73 271.357 1209.64 270.19C1207.57 269.023 1205.22 267.857 1202.58 266.69C1199.96 265.534 1196.69 264.961 1192.77 264.961H1056.89C1050.77 264.961 1047.71 262.701 1047.71 258.169C1047.71 254.492 1050.09 251.982 1054.87 250.648L1066.81 248.44C1072.92 246.846 1075.98 243.539 1075.98 238.523V34.3359C1075.98 29.2005 1072.92 25.8932 1066.81 24.4193L1054.87 22.2318C1050.09 20.888 1047.71 18.3724 1047.71 14.6901C1047.71 10.1641 1050.77 7.89844 1056.89 7.89844H1138.04C1144.04 7.89844 1147.04 10.1641 1147.04 14.6901C1147.04 18.3724 1144.71 20.888 1140.06 22.2318Z" fill="black"/>
<path d="M1345.36 238.523C1345.36 243.664 1348.36 246.971 1354.36 248.44L1366.46 250.648C1371.11 251.982 1373.44 254.492 1373.44 258.169C1373.44 262.701 1370.44 264.961 1364.44 264.961H1283.29C1277.17 264.961 1274.11 262.701 1274.11 258.169C1274.11 254.492 1276.49 251.982 1281.27 250.648L1293.21 248.44C1299.32 246.846 1302.38 243.539 1302.38 238.523V34.3359C1302.38 29.2005 1299.32 25.8932 1293.21 24.4193L1281.27 22.2318C1276.49 20.888 1274.11 18.3724 1274.11 14.6901C1274.11 10.1641 1277.17 7.89844 1283.29 7.89844H1364.44C1370.44 7.89844 1373.44 10.1641 1373.44 14.6901C1373.44 18.3724 1371.11 20.888 1366.46 22.2318L1354.36 24.4193C1348.36 25.8932 1345.36 29.2005 1345.36 34.3359V238.523Z" fill="black"/>
<path d="M665.565 407.727C667.065 407.727 668.523 407.492 669.94 407.018C671.367 406.534 672.638 405.867 673.753 405.018C674.862 404.159 675.753 403.154 676.419 401.997C677.096 400.846 677.451 399.596 677.482 398.247H685.357C685.315 400.414 684.742 402.477 683.648 404.435C682.565 406.393 681.107 408.117 679.273 409.602C677.451 411.091 675.357 412.279 672.982 413.164C670.617 414.039 668.148 414.477 665.565 414.477C661.883 414.477 658.659 413.815 655.898 412.497C653.148 411.18 650.846 409.409 649.003 407.185C647.154 404.951 645.763 402.372 644.836 399.456C643.919 396.529 643.461 393.445 643.461 390.206V388.31C643.461 385.102 643.919 382.034 644.836 379.102C645.763 376.174 647.154 373.591 649.003 371.352C650.846 369.117 653.148 367.341 655.898 366.018C658.659 364.701 661.883 364.039 665.565 364.039C668.44 364.039 671.086 364.497 673.503 365.414C675.919 366.331 678.003 367.576 679.753 369.143C681.503 370.716 682.867 372.581 683.857 374.747C684.857 376.904 685.357 379.206 685.357 381.664H677.482C677.451 380.195 677.128 378.81 676.503 377.518C675.888 376.216 675.055 375.07 674.003 374.081C672.961 373.081 671.711 372.299 670.253 371.727C668.805 371.159 667.242 370.872 665.565 370.872C662.992 370.872 660.826 371.393 659.065 372.435C657.315 373.466 655.898 374.81 654.815 376.477C653.742 378.143 652.971 380.013 652.503 382.081C652.044 384.138 651.815 386.216 651.815 388.31V390.206C651.815 392.331 652.044 394.435 652.503 396.518C652.971 398.602 653.737 400.477 654.794 402.143C655.862 403.81 657.273 405.159 659.023 406.185C660.773 407.216 662.951 407.727 665.565 407.727Z" fill="#727272"/>
<path d="M723.148 388.81C723.148 385.31 723.654 382.055 724.669 379.039C725.695 376.029 727.159 373.414 729.065 371.206C730.966 368.987 733.279 367.237 736.003 365.956C738.737 364.68 741.815 364.039 745.232 364.039C748.674 364.039 751.763 364.68 754.503 365.956C757.253 367.237 759.576 368.987 761.482 371.206C763.383 373.414 764.841 376.029 765.857 379.039C766.867 382.055 767.378 385.31 767.378 388.81V389.81C767.378 393.31 766.867 396.56 765.857 399.56C764.841 402.56 763.383 405.174 761.482 407.393C759.576 409.602 757.258 411.341 754.523 412.602C751.799 413.852 748.732 414.477 745.315 414.477C741.867 414.477 738.773 413.852 736.023 412.602C733.284 411.341 730.966 409.602 729.065 407.393C727.159 405.174 725.695 402.56 724.669 399.56C723.654 396.56 723.148 393.31 723.148 389.81V388.81ZM731.461 389.81C731.461 392.201 731.742 394.487 732.315 396.664C732.883 398.831 733.742 400.742 734.898 402.393C736.065 404.034 737.513 405.331 739.253 406.289C740.987 407.247 743.008 407.727 745.315 407.727C747.591 407.727 749.591 407.247 751.315 406.289C753.034 405.331 754.471 404.034 755.628 402.393C756.779 400.742 757.638 398.831 758.211 396.664C758.779 394.487 759.065 392.201 759.065 389.81V388.81C759.065 386.451 758.773 384.185 758.19 382.018C757.607 379.841 756.737 377.924 755.586 376.268C754.43 374.617 752.992 373.305 751.273 372.331C749.549 371.362 747.534 370.872 745.232 370.872C742.924 370.872 740.919 371.362 739.211 372.331C737.503 373.305 736.065 374.617 734.898 376.268C733.742 377.924 732.883 379.841 732.315 382.018C731.742 384.185 731.461 386.451 731.461 388.81V389.81Z" fill="#727272"/>
<path d="M838.462 400.685C838.462 399.701 838.264 398.81 837.879 398.018C837.488 397.216 836.827 396.487 835.9 395.831C834.967 395.164 833.738 394.555 832.212 393.997C830.681 393.445 828.78 392.945 826.504 392.497C823.712 391.93 821.171 391.242 818.879 390.435C816.587 389.633 814.618 388.664 812.983 387.539C811.358 386.414 810.092 385.096 809.191 383.581C808.285 382.07 807.837 380.305 807.837 378.289C807.837 376.32 808.301 374.471 809.233 372.747C810.16 371.029 811.467 369.518 813.15 368.227C814.827 366.935 816.827 365.914 819.15 365.164C821.467 364.414 824.025 364.039 826.816 364.039C829.816 364.039 832.509 364.43 834.9 365.206C837.301 365.987 839.342 367.07 841.025 368.456C842.702 369.831 843.993 371.445 844.9 373.289C845.816 375.122 846.275 377.112 846.275 379.247H837.962C837.962 378.195 837.691 377.164 837.15 376.164C836.608 375.154 835.858 374.258 834.9 373.477C833.941 372.701 832.78 372.076 831.421 371.602C830.056 371.117 828.525 370.872 826.816 370.872C825.051 370.872 823.504 371.07 822.171 371.456C820.837 371.846 819.723 372.372 818.837 373.039C817.947 373.695 817.28 374.456 816.837 375.331C816.389 376.195 816.171 377.091 816.171 378.018C816.171 378.977 816.342 379.831 816.691 380.581C817.051 381.331 817.676 382.008 818.566 382.602C819.452 383.201 820.634 383.742 822.108 384.227C823.592 384.716 825.473 385.18 827.754 385.622C830.754 386.247 833.431 386.977 835.796 387.81C838.171 388.633 840.16 389.617 841.775 390.768C843.4 391.924 844.634 393.263 845.483 394.789C846.342 396.32 846.775 398.091 846.775 400.102C846.775 402.258 846.285 404.221 845.316 405.997C844.342 407.763 842.983 409.279 841.233 410.539C839.493 411.789 837.41 412.763 834.983 413.456C832.566 414.133 829.921 414.477 827.046 414.477C823.738 414.477 820.796 414.039 818.212 413.164C815.639 412.279 813.467 411.112 811.691 409.664C809.91 408.206 808.551 406.518 807.608 404.602C806.66 402.674 806.191 400.674 806.191 398.602H814.504C814.613 400.31 815.066 401.758 815.858 402.935C816.66 404.102 817.655 405.049 818.837 405.768C820.014 406.477 821.322 406.987 822.754 407.289C824.197 407.581 825.629 407.727 827.046 407.727C830.546 407.727 833.316 407.091 835.358 405.81C837.4 404.518 838.431 402.81 838.462 400.685Z" fill="#727272"/>
<path d="M890.611 364.935L890.84 369.518C891.824 367.81 893.116 366.477 894.715 365.518C896.324 364.56 898.267 364.07 900.548 364.039C905.007 364.039 907.986 365.779 909.486 369.247C910.444 367.695 911.704 366.445 913.277 365.497C914.861 364.555 916.777 364.07 919.027 364.039C922.579 364.039 925.319 365.138 927.236 367.331C929.152 369.513 930.111 372.826 930.111 377.268V413.581H922.215V377.164C922.215 373.096 920.34 371.076 916.59 371.102C915.6 371.102 914.746 371.242 914.027 371.518C913.303 371.784 912.699 372.154 912.215 372.622C911.741 373.081 911.366 373.617 911.09 374.227C910.824 374.841 910.652 375.477 910.569 376.143V413.581H902.652V377.122C902.652 375.18 902.215 373.685 901.34 372.643C900.475 371.591 899.1 371.076 897.215 371.102C895.475 371.102 894.132 371.451 893.173 372.143C892.215 372.826 891.507 373.737 891.048 374.872V413.581H883.152V364.935H890.611Z" fill="#727272"/>
<path d="M988.926 414.477C985.509 414.477 982.368 413.893 979.509 412.727C976.645 411.56 974.197 409.93 972.155 407.831C970.113 405.737 968.52 403.247 967.384 400.372C966.243 397.487 965.676 394.352 965.676 390.977V389.081C965.676 385.154 966.306 381.638 967.572 378.539C968.832 375.445 970.499 372.826 972.572 370.685C974.655 368.534 977.02 366.888 979.676 365.747C982.327 364.612 985.051 364.039 987.842 364.039C991.342 364.039 994.405 364.654 997.03 365.872C999.655 367.081 1001.83 368.763 1003.57 370.914C1005.31 373.055 1006.6 375.576 1007.45 378.477C1008.31 381.383 1008.74 384.529 1008.74 387.914V391.643H973.988C974.082 393.867 974.514 395.951 975.28 397.893C976.04 399.841 977.092 401.539 978.426 402.997C979.759 404.456 981.353 405.602 983.217 406.435C985.077 407.268 987.124 407.685 989.363 407.685C992.332 407.685 994.973 407.091 997.28 405.893C999.582 404.701 1001.5 403.112 1003.03 401.122L1008.11 405.081C1007.31 406.32 1006.29 407.497 1005.07 408.622C1003.86 409.737 1002.46 410.727 1000.86 411.602C999.28 412.477 997.478 413.174 995.467 413.685C993.467 414.211 991.285 414.477 988.926 414.477ZM987.842 370.872C986.16 370.872 984.572 371.185 983.072 371.81C981.572 372.424 980.223 373.32 979.03 374.497C977.832 375.68 976.822 377.133 975.988 378.852C975.165 380.576 974.592 382.56 974.259 384.81H1000.43V384.185C1000.34 382.56 1000.04 380.956 999.509 379.372C998.978 377.789 998.202 376.367 997.176 375.102C996.16 373.841 994.884 372.82 993.342 372.039C991.801 371.263 989.967 370.872 987.842 370.872Z" fill="#727272"/>
<path d="M1067.78 353.164V364.935H1086.3V371.372H1067.78V397.81C1067.78 399.701 1068.02 401.263 1068.49 402.497C1068.98 403.721 1069.64 404.701 1070.47 405.435C1071.3 406.159 1072.27 406.674 1073.37 406.977C1074.46 407.268 1075.62 407.414 1076.85 407.414C1077.75 407.414 1078.68 407.367 1079.64 407.268C1080.6 407.159 1081.53 407.034 1082.45 406.893C1083.37 406.742 1084.22 406.581 1085.01 406.414C1085.8 406.247 1086.45 406.102 1086.97 405.977L1088.14 411.872C1087.44 412.289 1086.6 412.659 1085.62 412.977C1084.63 413.299 1083.55 413.57 1082.39 413.789C1081.22 414.008 1079.98 414.174 1078.68 414.289C1077.37 414.414 1076.07 414.477 1074.78 414.477C1072.63 414.477 1070.62 414.169 1068.74 413.56C1066.87 412.951 1065.24 411.977 1063.87 410.643C1062.49 409.31 1061.4 407.591 1060.6 405.477C1059.8 403.352 1059.41 400.799 1059.41 397.81V371.372H1046.64V364.935H1059.41V353.164H1067.78Z" fill="#727272"/>
<path d="M1130.04 364.932H1154.89V406.391H1170.76V413.578H1130.04V406.391H1146.58V372.182H1130.04V364.932ZM1145.49 352.182C1145.49 350.797 1145.9 349.63 1146.72 348.682C1147.56 347.74 1148.81 347.266 1150.49 347.266C1152.13 347.266 1153.37 347.74 1154.2 348.682C1155.05 349.63 1155.47 350.797 1155.47 352.182C1155.47 353.531 1155.05 354.656 1154.2 355.557C1153.37 356.448 1152.13 356.891 1150.49 356.891C1148.81 356.891 1147.56 356.448 1146.72 355.557C1145.9 354.656 1145.49 353.531 1145.49 352.182Z" fill="#727272"/>
<path d="M1230.1 407.727C1231.6 407.727 1233.05 407.492 1234.47 407.018C1235.9 406.534 1237.17 405.867 1238.28 405.018C1239.39 404.159 1240.28 403.154 1240.95 401.997C1241.63 400.846 1241.98 399.596 1242.01 398.247H1249.89C1249.85 400.414 1249.27 402.477 1248.18 404.435C1247.1 406.393 1245.64 408.117 1243.8 409.602C1241.98 411.091 1239.89 412.279 1237.51 413.164C1235.15 414.039 1232.68 414.477 1230.1 414.477C1226.41 414.477 1223.19 413.815 1220.43 412.497C1217.68 411.18 1215.38 409.409 1213.53 407.185C1211.68 404.951 1210.29 402.372 1209.37 399.456C1208.45 396.529 1207.99 393.445 1207.99 390.206V388.31C1207.99 385.102 1208.45 382.034 1209.37 379.102C1210.29 376.174 1211.68 373.591 1213.53 371.352C1215.38 369.117 1217.68 367.341 1220.43 366.018C1223.19 364.701 1226.41 364.039 1230.1 364.039C1232.97 364.039 1235.62 364.497 1238.03 365.414C1240.45 366.331 1242.53 367.576 1244.28 369.143C1246.03 370.716 1247.4 372.581 1248.39 374.747C1249.39 376.904 1249.89 379.206 1249.89 381.664H1242.01C1241.98 380.195 1241.66 378.81 1241.03 377.518C1240.42 376.216 1239.59 375.07 1238.53 374.081C1237.49 373.081 1236.24 372.299 1234.78 371.727C1233.34 371.159 1231.77 370.872 1230.1 370.872C1227.52 370.872 1225.36 371.393 1223.6 372.435C1221.85 373.466 1220.43 374.81 1219.35 376.477C1218.27 378.143 1217.5 380.013 1217.03 382.081C1216.58 384.138 1216.35 386.216 1216.35 388.31V390.206C1216.35 392.331 1216.58 394.435 1217.03 396.518C1217.5 398.602 1218.27 400.477 1219.33 402.143C1220.39 403.81 1221.8 405.159 1223.55 406.185C1225.3 407.216 1227.48 407.727 1230.1 407.727Z" fill="#727272"/>
<path d="M1322.35 400.685C1322.35 399.701 1322.15 398.81 1321.77 398.018C1321.38 397.216 1320.71 396.487 1319.79 395.831C1318.85 395.164 1317.63 394.555 1316.1 393.997C1314.57 393.445 1312.67 392.945 1310.39 392.497C1307.6 391.93 1305.06 391.242 1302.77 390.435C1300.47 389.633 1298.51 388.664 1296.87 387.539C1295.24 386.414 1293.98 385.096 1293.08 383.581C1292.17 382.07 1291.72 380.305 1291.72 378.289C1291.72 376.32 1292.19 374.471 1293.12 372.747C1294.05 371.029 1295.35 369.518 1297.04 368.227C1298.71 366.935 1300.71 365.914 1303.04 365.164C1305.35 364.414 1307.91 364.039 1310.7 364.039C1313.7 364.039 1316.4 364.43 1318.79 365.206C1321.19 365.987 1323.23 367.07 1324.91 368.456C1326.59 369.831 1327.88 371.445 1328.79 373.289C1329.7 375.122 1330.16 377.112 1330.16 379.247H1321.85C1321.85 378.195 1321.58 377.164 1321.04 376.164C1320.49 375.154 1319.74 374.258 1318.79 373.477C1317.83 372.701 1316.67 372.076 1315.31 371.602C1313.94 371.117 1312.41 370.872 1310.7 370.872C1308.94 370.872 1307.39 371.07 1306.06 371.456C1304.72 371.846 1303.61 372.372 1302.72 373.039C1301.83 373.695 1301.17 374.456 1300.72 375.331C1300.28 376.195 1300.06 377.091 1300.06 378.018C1300.06 378.977 1300.23 379.831 1300.58 380.581C1300.94 381.331 1301.56 382.008 1302.45 382.602C1303.34 383.201 1304.52 383.742 1305.99 384.227C1307.48 384.716 1309.36 385.18 1311.64 385.622C1314.64 386.247 1317.32 386.977 1319.68 387.81C1322.06 388.633 1324.05 389.617 1325.66 390.768C1327.29 391.924 1328.52 393.263 1329.37 394.789C1330.23 396.32 1330.66 398.091 1330.66 400.102C1330.66 402.258 1330.17 404.221 1329.2 405.997C1328.23 407.763 1326.87 409.279 1325.12 410.539C1323.38 411.789 1321.3 412.763 1318.87 413.456C1316.45 414.133 1313.81 414.477 1310.93 414.477C1307.63 414.477 1304.68 414.039 1302.1 413.164C1299.53 412.279 1297.35 411.112 1295.58 409.664C1293.8 408.206 1292.44 406.518 1291.49 404.602C1290.55 402.674 1290.08 400.674 1290.08 398.602H1298.39C1298.5 400.31 1298.95 401.758 1299.74 402.935C1300.55 404.102 1301.54 405.049 1302.72 405.768C1303.9 406.477 1305.21 406.987 1306.64 407.289C1308.08 407.581 1309.52 407.727 1310.93 407.727C1314.43 407.727 1317.2 407.091 1319.24 405.81C1321.29 404.518 1322.32 402.81 1322.35 400.685Z" fill="#727272"/>
</svg>
